<?xml version="1.0" encoding="UTF-8"?>
<svg width="1200" height="900" viewBox="0 0 1200 900" fill="none" xmlns="http://www.w3.org/2000/svg">
  <defs>
    <linearGradient id="g1" x1="0" y1="0" x2="1" y2="1">
      <stop offset="0%" stop-color="#2563EB"/>
      <stop offset="100%" stop-color="#06B6D4"/>
    </linearGradient>
    <linearGradient id="g2" x1="1" y1="0" x2="0" y2="1">
      <stop offset="0%" stop-color="#9333EA"/>
      <stop offset="100%" stop-color="#F43F5E"/>
    </linearGradient>
    <filter id="blur" x="-20%" y="-20%" width="140%" height="140%">
      <feGaussianBlur stdDeviation="50"/>
    </filter>
  </defs>
  <rect width="1200" height="900" fill="#0B1220"/>
  <g filter="url(#blur)" opacity="0.35">
    <circle cx="250" cy="200" r="220" fill="url(#g1)"/>
    <circle cx="980" cy="260" r="260" fill="url(#g2)"/>
    <circle cx="380" cy="760" r="240" fill="url(#g2)"/>
    <circle cx="980" cy="740" r="180" fill="url(#g1)"/>
  </g>
  <g>
    <rect x="250" y="220" rx="28" ry="28" width="700" height="460" fill="#0F172A" stroke="#1E293B"/>
    <rect x="300" y="280" rx="12" ry="12" width="600" height="56" fill="#111827" stroke="#374151"/>
    <rect x="300" y="360" rx="12" ry="12" width="600" height="56" fill="#111827" stroke="#374151"/>
    <rect x="300" y="440" rx="12" ry="12" width="600" height="56" fill="#2563EB"/>
    <rect x="300" y="520" rx="10" ry="10" width="260" height="14" fill="#1F2937"/>
    <rect x="610" y="520" rx="10" ry="10" width="290" height="14" fill="#1F2937"/>
    <circle cx="330" cy="308" r="10" fill="#2563EB"/>
    <circle cx="330" cy="388" r="10" fill="#F59E0B"/>
    <text x="300" y="260" fill="#E5E7EB" font-family="'Segoe UI', Roboto, Arial" font-size="28" font-weight="700">Bem-vindo de volta</text>
    <text x="300" y="612" fill="#9CA3AF" font-family="'Segoe UI', Roboto, Arial" font-size="16">Dica: Use seu email e senha para entrar</text>
  </g>
</svg>